<?xml version="1.0" encoding="utf-8"?>
<svg xmlns="http://www.w3.org/2000/svg" width="643" height="134" viewBox="0 0 643 134" fill="none">
<g clip-path="url(#clip0_2032_14251)">
<g clip-path="url(#clip1_2032_14251)">
<rect x="29.793" y="13.9648" width="58.5227" height="11.7045" fill="#FFD900"/>
<line x1="26.6008" y1="67.6992" x2="26.6008" y2="12.1027" stroke="black" stroke-width="6.38429"/>
<line x1="71.291" y1="11.0398" x2="28.7291" y2="11.0398" stroke="black" stroke-width="6.38429"/>
<line x1="68.0989" y1="37.6406" x2="68.0989" y2="13.5665" stroke="black" stroke-width="6.38429"/>
<line x1="72.8872" y1="7.84766" x2="72.8872" y2="0.0002985" stroke="black" stroke-width="7.44834"/>
<line x1="38.3059" y1="49.4766" x2="38.3059" y2="37.639" stroke="black" stroke-width="6.38429"/>
<line x1="38.3059" y1="61.3164" x2="38.3059" y2="49.4789" stroke="black" stroke-width="6.38429"/>
<line x1="41.498" y1="51.4719" x2="81.9354" y2="51.4719" stroke="black" stroke-width="6.38429"/>
<line x1="46.8184" y1="46.1516" x2="63.8437" y2="46.1516" stroke="black" stroke-width="6.38429"/>
<line x1="53.2031" y1="40.8313" x2="63.8436" y2="40.8313" stroke="black" stroke-width="6.38429"/>
<line x1="60.6504" y1="51.4719" x2="76.6111" y2="51.4719" stroke="#FFD900" stroke-width="6.38429"/>
<line x1="60.6504" y1="51.4719" x2="76.6111" y2="51.4719" stroke="#FFD900" stroke-width="6.38429"/>
<line x1="73.4192" y1="55.1992" x2="73.4192" y2="37.6415" stroke="black" stroke-width="6.38429"/>
<path d="M67.0352 54.668V37.6411" stroke="#FFD900" stroke-width="6.38429"/>
<line x1="20.2161" y1="79.1367" x2="20.2161" y2="60.9149" stroke="black" stroke-width="6.38429"/>
<line x1="10.7734" y1="75.9446" x2="17.1577" y2="75.9446" stroke="black" stroke-width="6.38429"/>
<line x1="3.19262" y1="97.2266" x2="3.19262" y2="85.522" stroke="black" stroke-width="6.38429"/>
<line x1="14.8957" y1="108.934" x2="14.8957" y2="97.2291" stroke="black" stroke-width="6.38429"/>
<line x1="8.51293" y1="103.613" x2="8.51293" y2="91.9088" stroke="black" stroke-width="6.38429"/>
<line y1="82.3313" x2="11.7045" y2="82.3313" stroke="black" stroke-width="6.38429"/>
<line x1="11.7051" y1="105.741" x2="23.4096" y2="105.741" stroke="black" stroke-width="6.38429"/>
<line x1="34.0488" y1="130.214" x2="47.8815" y2="130.214" stroke="black" stroke-width="6.38429"/>
<line x1="64.1094" y1="130.214" x2="77.942" y2="130.214" stroke="black" stroke-width="6.38429"/>
<line x1="59.5859" y1="75.9446" x2="106.404" y2="75.9446" stroke="black" stroke-width="6.38429"/>
<line x1="59.5859" y1="57.8586" x2="106.404" y2="57.8586" stroke="black" stroke-width="6.38429"/>
<line x1="75.5469" y1="117.445" x2="89.3795" y2="117.445" stroke="black" stroke-width="6.38429"/>
<line x1="41.498" y1="117.445" x2="64.9071" y2="117.445" stroke="black" stroke-width="6.38429"/>
<line x1="6.38477" y1="100.421" x2="18.0893" y2="100.421" stroke="black" stroke-width="6.38429"/>
<line y1="94.0344" x2="11.7045" y2="94.0344" stroke="black" stroke-width="6.38429"/>
<line x1="32.8528" y1="67.5664" x2="32.8528" y2="37.64" stroke="#FFD900" stroke-width="6.38429"/>
<line x1="26.6008" y1="108.934" x2="26.6008" y2="67.5687" stroke="#FFD900" stroke-width="6.38429"/>
<line x1="29.793" y1="111.062" x2="88.3156" y2="111.062" stroke="#171717" stroke-width="6.38429"/>
<line x1="29.793" y1="111.062" x2="88.3156" y2="111.062" stroke="#FFD900" stroke-width="6.38429"/>
<line x1="28.7285" y1="117.445" x2="41.4971" y2="117.445" stroke="#FFD900" stroke-width="6.38429"/>
<line x1="62.2461" y1="117.445" x2="75.0147" y2="117.445" stroke="#FFD900" stroke-width="6.38429"/>
<line x1="36.1777" y1="105.741" x2="94.7004" y2="105.741" stroke="#FFD900" stroke-width="6.38429"/>
<line x1="17.5566" y1="99.3547" x2="93.6361" y2="99.3547" stroke="#FFD900" stroke-width="6.38429"/>
<line x1="11.7051" y1="94.0344" x2="93.6368" y2="94.0344" stroke="#FFD900" stroke-width="6.38429"/>
<line x1="5.85156" y1="88.7141" x2="93.6356" y2="88.7141" stroke="#FFD900" stroke-width="6.38429"/>
<line x1="11.7051" y1="82.3313" x2="88.3166" y2="82.3313" stroke="#FFD900" stroke-width="6.38429"/>
<line x1="23.4082" y1="77.4094" x2="59.5868" y2="77.4094" stroke="#FFD900" stroke-width="6.38429"/>
<line x1="23.4082" y1="71.2922" x2="59.5868" y2="71.2922" stroke="#FFD900" stroke-width="6.38429"/>
<line x1="23.4082" y1="70.6282" x2="59.5868" y2="70.6282" stroke="#FFD900" stroke-width="6.38429"/>
<line x1="29.793" y1="64.3743" x2="65.9716" y2="64.3743" stroke="#FFD900" stroke-width="6.38429"/>
<line x1="41.498" y1="57.9913" x2="59.5869" y2="57.9913" stroke="#FFD900" stroke-width="6.6503"/>
<line x1="41.498" y1="57.9913" x2="59.5869" y2="57.9913" stroke="#FFD900" stroke-width="6.6503"/>
<line x1="76.6113" y1="-0.664802" x2="94.8332" y2="-0.664802" stroke="black" stroke-width="6.38429"/>
<line x1="86.1887" y1="13.9648" x2="86.1887" y2="2.52632" stroke="black" stroke-width="6.38429"/>
<line x1="91.509" y1="61.0508" x2="91.509" y2="13.1686" stroke="black" stroke-width="6.38429"/>
<line x1="11.7051" y1="34.4485" x2="106.405" y2="34.4485" stroke="black" stroke-width="6.38429"/>
<line x1="82.9961" y1="11.0398" x2="71.2916" y2="11.0398" stroke="#FFD900" stroke-width="6.38429"/>
<line x1="79.8039" y1="14.2305" x2="79.8039" y2="2.52594" stroke="#FFD900" stroke-width="6.38429"/>
<rect x="29.793" y="19.5508" width="58.5227" height="11.7045" fill="#FFD900"/>
<line x1="26.6008" y1="120.637" x2="26.6008" y2="108.932" stroke="black" stroke-width="6.38429"/>
<line x1="31.9211" y1="127.031" x2="31.9211" y2="114.252" stroke="black" stroke-width="6.38429"/>
<line x1="51.0735" y1="127.031" x2="51.0735" y2="114.252" stroke="black" stroke-width="6.38429"/>
<line x1="61.7141" y1="127.031" x2="61.7141" y2="114.252" stroke="black" stroke-width="6.38429"/>
<line x1="79.8039" y1="127.031" x2="79.8039" y2="114.252" stroke="black" stroke-width="6.38429"/>
<line x1="91.509" y1="115.328" x2="91.509" y2="102.548" stroke="black" stroke-width="6.38429"/>
<line x1="109.597" y1="73.8203" x2="109.597" y2="59.9877" stroke="black" stroke-width="6.38429"/>
<line x1="56.3938" y1="73.8203" x2="56.3938" y2="59.9877" stroke="black" stroke-width="6.38429"/>
<line x1="97.8918" y1="49.3438" x2="97.8918" y2="37.6392" stroke="black" stroke-width="6.38429"/>
<line x1="85.1243" y1="54.6641" x2="85.1243" y2="42.9595" stroke="black" stroke-width="6.38429"/>
<line x1="79.8039" y1="61.0508" x2="79.8039" y2="49.3462" stroke="black" stroke-width="6.38429"/>
<line x1="32.9856" y1="74.4844" x2="32.9856" y2="67.5681" stroke="black" stroke-width="6.38429"/>
<line x1="41.498" y1="40.3008" x2="53.2033" y2="40.3008" stroke="white" stroke-width="5.32024"/>
<line x1="44.1582" y1="48.2812" x2="44.1582" y2="37.6408" stroke="white" stroke-width="5.32024"/>
<line x1="76.6113" y1="40.3008" x2="88.3166" y2="40.3008" stroke="white" stroke-width="5.32024"/>
<line x1="79.2715" y1="48.2812" x2="79.2715" y2="37.6408" stroke="white" stroke-width="5.32024"/>
<line x1="32.9856" y1="107.867" x2="32.9856" y2="100.951" stroke="black" stroke-width="6.38429"/>
<line x1="38.3059" y1="102.547" x2="38.3059" y2="88.7142" stroke="black" stroke-width="6.38429"/>
<line x1="91.509" y1="85.5352" x2="91.509" y2="72.7555" stroke="black" stroke-width="6.38429"/>
<line x1="96.8293" y1="103.613" x2="96.8293" y2="84.4604" stroke="black" stroke-width="6.38429"/>
<line x1="74.4836" y1="127.031" x2="74.4836" y2="114.252" stroke="black" stroke-width="6.38429"/>
<line x1="34.0488" y1="123.827" x2="47.8815" y2="123.827" stroke="#F74402" stroke-width="6.38429"/>
<line x1="64.1094" y1="123.827" x2="77.942" y2="123.827" stroke="#F74402" stroke-width="6.38429"/>
<line x1="59.5859" y1="66.9016" x2="106.404" y2="66.9016" stroke="#F74402" stroke-width="11.7045"/>
</g>
<path d="M135.8 103.8H169.4V94.2H179V75H174.2V65.4H154.04V79.8H164.6V89.4H140.6V51H174.2V36.6H135.8V46.2H126.2V94.2H135.8V103.8ZM193.419 46.2V103.8H207.819V79.8H227.019V103.8H241.419V46.2H231.819V36.6H203.019V46.2H193.419ZM207.819 65.4V51H227.019V65.4H207.819ZM265.456 103.8H299.056V94.2H308.656V75H303.856V65.4H283.696V79.8H294.256V89.4H270.256V51H303.856V36.6H265.456V46.2H255.856V94.2H265.456V103.8ZM323.075 46.2V103.8H337.475V79.8H356.675V103.8H371.075V46.2H361.475V36.6H332.675V46.2H323.075ZM337.475 65.4V51H356.675V65.4H337.475ZM385.513 36.6V103.8H399.913V60.6H404.713V75H414.313V84.6H423.913V99H433.513V103.8H447.913V36.6H433.513V79.8H428.713V65.4H419.113V55.8H409.513V41.4H399.913V36.6H385.513ZM471.894 103.8H505.494V94.2H515.094V46.2H505.494V36.6H471.894V46.2H462.294V94.2H471.894V103.8ZM476.694 89.4V51H500.694V89.4H476.694ZM529.513 103.8H572.713V94.2H582.312V46.2H572.713V36.6H529.513V103.8ZM543.913 89.4V51H567.913V89.4H543.913ZM596.731 103.8H635.131V89.4H611.131V75H635.131V60.6H611.131V51H635.131V36.6H596.731V103.8Z" fill="black"/>
</g>
<defs>
<clipPath id="clip0_2032_14251">
<rect width="643" height="134" fill="white"/>
</clipPath>
<clipPath id="clip1_2032_14251">
<rect width="112.712" height="133.584" fill="white"/>
</clipPath>
</defs>
</svg>