<svg version="1.1" id="图层_1" xmlns="http://www.w3.org/2000/svg" xmlns:xlink="http://www.w3.org/1999/xlink" x="0" y="0" viewBox="0 0 232 61" xml:space="preserve"><style>.st0{fill:#113253}.st1{opacity:8.000000e-02}.st4{fill:#1c3353}.st44{opacity:.2}</style><g id="页面-1"><g id="Extra-Large-2" transform="translate(-547 -66)"><g id="packetshare背景" transform="translate(481)"><g id="编组-4" transform="translate(66 66)"><g id="编组" transform="translate(53 14)"><g transform="translate(1.892 6.13)" id="Packetshare"><path id="形状" class="st0" d="M8.7 1.1H0v19h5.4v-5h3.3c5.2 0 8.4-2.7 8.4-7s-3.3-7-8.4-7zm-.4 9.8h-3V5.4h3c2.2 0 3.3 1 3.3 2.8.1 1.7-1.1 2.7-3.3 2.7z"/><path id="形状_1_" class="st0" d="M25.1 5.2c-2.3 0-4.8.6-6.5 1.7l1.7 3.5c1-.8 2.6-1.3 4-1.3 2 0 3 .8 3.1 2.3h-2.9c-4.5 0-6.5 1.7-6.5 4.4 0 2.5 1.9 4.5 5.5 4.5 2.1 0 3.6-.7 4.3-2.1v1.9h4.8v-8.2c0-4.6-2.7-6.7-7.5-6.7zm-.2 11.9c-1.2 0-1.9-.6-1.9-1.5s.6-1.5 2.2-1.5h2.2v1.3c-.3 1.1-1.3 1.7-2.5 1.7z"/><path id="路径" class="st0" d="M43.8 20.3c3.3 0 5.9-1.5 6.9-4l-4-2c-.7 1.4-1.7 2-2.9 2-1.8 0-3.2-1.2-3.2-3.5 0-2.2 1.4-3.5 3.2-3.5 1.2 0 2.2.6 2.9 2l4-2c-1-2.5-3.5-4-6.9-4-4.9 0-8.4 3.1-8.4 7.6 0 4.3 3.4 7.4 8.4 7.4z"/><path id="路径_1_" class="st0" d="M63.2 20.1h6.3l-6.6-8.4 6-6.3h-6l-5.3 5.1V0h-5.1v20.1h5.1v-3.6l1.5-1.5z"/><path id="形状_2_" class="st0" d="M84.7 12.8c0-4.8-3.5-7.6-7.8-7.6-4.6 0-8.1 3.1-8.1 7.6 0 4.4 3.4 7.6 8.6 7.6 2.8 0 4.8-.8 6.2-2.4l-2.7-2.8c-1 .9-1.9 1.3-3.4 1.3-1.9 0-3.2-.9-3.6-2.4h10.7c0-.4.1-.9.1-1.3zm-7.8-4c1.6 0 2.7 1 3 2.5h-6c.3-1.5 1.4-2.5 3-2.5z"/><path id="路径_2_" class="st0" d="M95.9 15.9c-.4.3-1 .5-1.6.5-.9 0-1.5-.6-1.5-1.7V9.8h3.4V6h-3.4V2.1h-5.1V6h-2.1v3.8h2.1v4.9c0 3.8 2.2 5.6 5.9 5.6 1.4 0 2.7-.3 3.6-.8l-1.3-3.6z"/><path id="路径_3_" class="st0" d="M104.5 20.3c4.8 0 7.2-2.1 7.2-4.8 0-5.8-8.6-3.6-8.6-5.7 0-.5.6-1 2.4-1 1.3 0 2.8.3 4.2 1.1l1.5-3.5c-1.5-.8-3.7-1.2-5.8-1.2-4.6 0-7.1 2.1-7.1 4.9 0 5.9 8.7 3.6 8.7 5.6 0 .6-.6 1-2.3 1-1.8 0-3.8-.5-5.1-1.4L98 18.8c1.4.9 4 1.5 6.5 1.5z"/><path id="路径_4_" class="st0" d="M123.5 5.2c-1.7 0-3.3.5-4.4 1.6V0H114v20.1h5.1V13c0-2.4 1.3-3.5 2.9-3.5 1.5 0 2.4.9 2.4 3v7.6h5.1v-8.4c0-4.5-2.6-6.5-6-6.5z"/><path id="形状_3_" class="st0" d="M139 5.2c-2.3 0-4.8.6-6.5 1.7l1.7 3.5c1-.8 2.6-1.3 4-1.3 2 0 3 .8 3.1 2.3h-2.9c-4.5 0-6.5 1.7-6.5 4.4 0 2.5 1.9 4.5 5.5 4.5 2.1 0 3.6-.7 4.3-2.1v1.9h4.8v-8.2c0-4.6-2.7-6.7-7.5-6.7zm-.2 11.9c-1.2 0-1.9-.6-1.9-1.5s.6-1.5 2.2-1.5h2.2v1.3c-.3 1.1-1.3 1.7-2.5 1.7z"/><path id="路径_5_" class="st0" d="M154.6 7.2V5.4h-4.9v14.7h5.1v-6.7c0-2.6 1.4-3.6 3.5-3.6.4 0 .7 0 1.2.1V5.2c-2.1 0-3.8.7-4.9 2z"/><path id="形状_4_" class="st0" d="M176.3 12.8c0-4.8-3.5-7.6-7.8-7.6-4.6 0-8.1 3.1-8.1 7.6 0 4.4 3.4 7.6 8.6 7.6 2.8 0 4.8-.8 6.2-2.4l-2.7-2.8c-1 .9-1.9 1.3-3.4 1.3-1.9 0-3.2-.9-3.6-2.4h10.7c.1-.4.1-.9.1-1.3zm-7.8-4c1.6 0 2.7 1 3 2.5h-6c.3-1.5 1.4-2.5 3-2.5z"/></g></g><g class="st1"><defs><path id="SVGID_1_" d="M34.8 53c0 1.3-3.7 2.3-8.2 2.3s-8.2-1-8.2-2.3 3.7-2.3 8.2-2.3 8.2 1 8.2 2.3"/></defs><clipPath id="SVGID_00000112597899226301537850000004141292782790382737_"><use xlink:href="#SVGID_1_" overflow="visible"/></clipPath><path clip-path="url(#SVGID_00000112597899226301537850000004141292782790382737_)" fill="#113253" d="M18.3 50.6h16.6v4.8H18.3z"/></g><defs><path id="SVGID_00000090286041961100089440000012813746258964467613_" d="M48.1 37.3c-3.5 8.3-15 11.2-22.6 11.1-1 0-16.2-.6-20.6-10.3C-.4 26.5 11.5 6.8 25.8 6.4c14.4-.3 27.3 19 22.3 30.9"/></defs><clipPath id="SVGID_00000052069920901955544290000004913958684829105056_"><use xlink:href="#SVGID_00000090286041961100089440000012813746258964467613_" overflow="visible"/></clipPath><path clip-path="url(#SVGID_00000052069920901955544290000004913958684829105056_)" fill="#ffcc5a" d="M0 6h50.8v42.5H0z"/><path class="st4" d="M26.2 49h-.7c-.5 0-4.6-.1-9.2-1.5-2.6-.8-4.9-1.9-6.8-3.2-2.4-1.6-4.1-3.6-5.2-6C1.8 32.8 2.9 25 7.3 18c2.2-3.4 4.9-6.4 8-8.5 3.3-2.3 7-3.6 10.5-3.7 3.6-.1 7.3 1 10.8 3.2 3.2 2 6.1 4.8 8.4 8.2 2.2 3.2 3.7 6.8 4.5 10.2.8 3.7.5 7.2-.7 10.1-1.6 3.9-5.1 7-10.1 9.1-3.8 1.5-8.3 2.4-12.5 2.4zm0-42h-.3c-3.3.1-6.7 1.3-9.8 3.4-2.9 2-5.6 4.8-7.6 8.1-2 3.2-3.3 6.6-3.8 9.9-.6 3.5-.2 6.7 1 9.3 4.4 9.5 19.4 9.9 20.1 9.9 4.2.1 8.8-.7 12.6-2.3 3.3-1.3 7.6-3.9 9.4-8.4l.6.2-.8-.1c1.1-2.7 1.3-5.9.6-9.3-.7-3.3-2.1-6.7-4.3-9.8-2.2-3.2-5-6-8-7.9-3.2-1.9-6.5-3-9.7-3z"/><defs><path id="SVGID_00000093170606326356727680000010437258781815324046_" d="M46.1 37.3C42.8 45.1 32 47.9 24.9 47.7c-.9 0-15.1-.5-19.3-9.6-5-10.8 6.2-29.3 19.6-29.6 13.4-.4 25.5 17.7 20.9 28.8"/></defs><clipPath id="SVGID_00000171698145769304643400000002920482434819916418_"><use xlink:href="#SVGID_00000093170606326356727680000010437258781815324046_" overflow="visible"/></clipPath><path clip-path="url(#SVGID_00000171698145769304643400000002920482434819916418_)" fill="#ffb500" d="M.6 8.1h50.2V48H.6z"/><defs><path id="SVGID_00000004528666299353647780000008290571717015928235_" d="M34.8 21.3h11v12.2h-11z"/></defs><clipPath id="SVGID_00000158720090076064116380000013482640515673624989_"><use xlink:href="#SVGID_00000004528666299353647780000008290571717015928235_" overflow="visible"/></clipPath><defs><path id="SVGID_00000006683825121809948510000016639247488732456092_" d="M26.9 40.5c0 1-.8 1.9-1.9 1.9s-1.9-.8-1.9-1.9c0-1 .8-1.9 1.9-1.9s1.9.9 1.9 1.9"/></defs><clipPath id="SVGID_00000019664616652659416140000015933836335611061635_"><use xlink:href="#SVGID_00000006683825121809948510000016639247488732456092_" overflow="visible"/></clipPath><path clip-path="url(#SVGID_00000019664616652659416140000015933836335611061635_)" fill="#fff" d="M23.1 38.6H27v3.9h-3.9z"/><defs><path id="SVGID_00000094592474051310798530000006346612105877706129_" d="M32.9 11.6c-.9-.5-1.9-.9-3-.9 3.3 1.3 6.5 3.6 7 4.5.8.4 1.3.6 1.3.5.4-.4-2.4-2.7-5.3-4.1"/></defs><clipPath id="SVGID_00000174596214955910985160000013077764042842802089_"><use xlink:href="#SVGID_00000094592474051310798530000006346612105877706129_" overflow="visible"/></clipPath><path clip-path="url(#SVGID_00000174596214955910985160000013077764042842802089_)" fill="#fff" d="M29.9 10.6h8.7v5.3h-8.7z"/><defs><path id="SVGID_00000163036143643078912890000005835107355411384449_" d="M40.4 18.5c-.1.1-.9-.7-1-.9-.2-.3-.7-.8-.6-.9.1-.1.6.2.9.5.5.6.8 1.3.7 1.3"/></defs><clipPath id="SVGID_00000111905538297022446370000014811426523241616534_"><use xlink:href="#SVGID_00000163036143643078912890000005835107355411384449_" overflow="visible"/></clipPath><path clip-path="url(#SVGID_00000111905538297022446370000014811426523241616534_)" fill="#fff" d="M38.6 16.6h2v2.1h-2z"/><defs><path id="SVGID_00000011022510183626302840000008935207133470090906_" d="M48.8 12.2c-.2.1-.5-1.5-2.1-3-1.4-1.3-2.6-1.6-2.6-1.8.1-.2 1.7-.2 2.9.7 1.8 1.4 2.1 4 1.8 4.1"/></defs><clipPath id="SVGID_00000101812888489412716910000013435362121038705853_"><use xlink:href="#SVGID_00000011022510183626302840000008935207133470090906_" overflow="visible"/></clipPath><path clip-path="url(#SVGID_00000101812888489412716910000013435362121038705853_)" fill="#ffcc5a" d="M44 7.2h5.1v5.2H44z"/><defs><path id="SVGID_00000005265764899900532650000009025765082933524099_" d="M48.6 12.3c-.1.1-.5-1.3-1.8-2.6-1.2-1.1-2.3-1.4-2.2-1.5 0-.2 1.4-.1 2.5.7 1.5 1.1 1.7 3.3 1.5 3.4"/></defs><clipPath id="SVGID_00000064349878952030483380000013568884052149606274_"><use xlink:href="#SVGID_00000005265764899900532650000009025765082933524099_" overflow="visible"/></clipPath><path clip-path="url(#SVGID_00000064349878952030483380000013568884052149606274_)" fill="#ffb500" d="M44.4 8h4.4v4.5h-4.4z"/><defs><path id="SVGID_00000132087422588127246020000011695386382946567870_" d="M48.6 12.5c.1-.3-.1-2-1.3-2.9-.7-.5-1.5-.6-1.9-.6.4.2.8.5 1.3 1 1.5 1.2 1.8 2.5 1.9 2.5"/></defs><clipPath id="SVGID_00000108274743647219545170000007196303395872501122_"><use xlink:href="#SVGID_00000132087422588127246020000011695386382946567870_" overflow="visible"/></clipPath><path clip-path="url(#SVGID_00000108274743647219545170000007196303395872501122_)" fill="#fc8901" d="M45.4 8.9h3.4v3.7h-3.4z"/><defs><path id="SVGID_00000088848752348252187270000013813743548192894337_" d="M44.6 7.4c.6 0 1.6.2 2.5.9 1.8 1.3 2 3.9 1.8 4-.2 0-.6-1.5-2.1-3-1.4-1.3-2.6-1.6-2.6-1.8 0-.1.2-.1.4-.1m0-.7c-.2 0-.9 0-1 .5 0 .1-.1.5.3.9.1.1.3.2.4.2.5.3 1.2.6 1.9 1.3 1 .9 1.5 1.9 1.7 2.4.1.1.1.3.2.3.2.3.4.4.6.4h.2c.2-.1.4-.2.4-.6.1-.4 0-1.2-.3-2-.3-.7-.8-1.7-1.7-2.4-.8-.7-2-1-2.7-1"/></defs><clipPath id="SVGID_00000055697432345730959600000016223600878585759661_"><use xlink:href="#SVGID_00000088848752348252187270000013813743548192894337_" overflow="visible"/></clipPath><path clip-path="url(#SVGID_00000055697432345730959600000016223600878585759661_)" fill="#1c3353" d="M43.4 6.7h6.2v6.2h-6.2z"/><defs><path id="SVGID_00000091699716598178328510000011349205261678305413_" d="M50 8.2c-.1 0-.4-.7-1.2-1.6-.7-.7-1.4-1-1.4-1 0-.1.8 0 1.5.6.9.7 1.2 2 1.1 2"/></defs><clipPath id="SVGID_00000142139872198589086470000014343252082682652081_"><use xlink:href="#SVGID_00000091699716598178328510000011349205261678305413_" overflow="visible"/></clipPath><path clip-path="url(#SVGID_00000142139872198589086470000014343252082682652081_)" fill="#ffcc5a" d="M47.3 5.4h2.8v2.9h-2.8z"/><defs><path id="SVGID_00000094600668829948326290000017091061041259628956_" d="M49.9 8.2c-.1 0-.3-.6-1.1-1.4-.6-.6-1.2-.8-1.1-.8 0-.1.7 0 1.3.5.7.6 1 1.7.9 1.7"/></defs><clipPath id="SVGID_00000043434772116463908970000005821960770939756166_"><use xlink:href="#SVGID_00000094600668829948326290000017091061041259628956_" overflow="visible"/></clipPath><path clip-path="url(#SVGID_00000043434772116463908970000005821960770939756166_)" fill="#ffb500" d="M47.6 5.8h2.5v2.5h-2.5z"/><defs><path id="SVGID_00000035494974023319692280000014502089589520977342_" d="M49.9 8.3c0-.1-.2-1-.8-1.5-.4-.3-.7-.4-.9-.4.2.1.4.3.7.6.7.6.9 1.3 1 1.3"/></defs><clipPath id="SVGID_00000019647316570616521350000009130134484845630905_"><use xlink:href="#SVGID_00000035494974023319692280000014502089589520977342_" overflow="visible"/></clipPath><path clip-path="url(#SVGID_00000019647316570616521350000009130134484845630905_)" fill="#fc8901" d="M48.1 6.3H50v2.1h-1.9z"/><defs><path id="SVGID_00000030467828270018839720000009433061759338335658_" d="M47.5 5.5c.2 0 .8.2 1.4.6.9.8 1.2 2 1.1 2.1-.1 0-.4-.8-1.2-1.6-.8-.7-1.4-.9-1.3-1.1-.1 0 0 0 0 0m0-.6c-.4 0-.6.3-.7.5 0 .2 0 .4.3.7.1 0 .1.1.2.2.2.2.6.4 1 .8.5.5.8 1 1 1.2.1.2.3.5.7.5h.2c.2-.1.4-.3.5-.5.1-.4-.2-1-.3-1.2-.2-.4-.5-1-1.1-1.4-.6-.5-1.4-.8-1.8-.8"/></defs><clipPath id="SVGID_00000039130562892519477210000016312308917563751056_"><use xlink:href="#SVGID_00000030467828270018839720000009433061759338335658_" overflow="visible"/></clipPath><path clip-path="url(#SVGID_00000039130562892519477210000016312308917563751056_)" fill="#1c3353" d="M46.7 4.9h4v4h-4z"/><defs><path id="SVGID_00000115501217808238143200000008389013139328051374_" d="M1.8 44.5c.2 0 .6 1.5 2.2 3 1.4 1.3 2.6 1.6 2.6 1.8-.1.2-1.7.2-2.9-.7-1.8-1.4-2.1-4-1.9-4.1"/></defs><clipPath id="SVGID_00000181777750764832109850000006537187035557810340_"><use xlink:href="#SVGID_00000115501217808238143200000008389013139328051374_" overflow="visible"/></clipPath><path clip-path="url(#SVGID_00000181777750764832109850000006537187035557810340_)" fill="#ffcc5a" d="M1.6 44.4h5.1v5.2H1.6z"/><defs><path id="SVGID_00000031165541186420608330000008337690135134271894_" d="M2.1 44.4c.2 0 .5 1.3 1.9 2.6 1.2 1.1 2.3 1.4 2.2 1.5-.1.2-1.5.2-2.5-.6-1.6-1.1-1.8-3.4-1.6-3.5"/></defs><clipPath id="SVGID_00000050652726936071024580000000820608117556228528_"><use xlink:href="#SVGID_00000031165541186420608330000008337690135134271894_" overflow="visible"/></clipPath><path clip-path="url(#SVGID_00000050652726936071024580000000820608117556228528_)" fill="#ffb500" d="M1.9 44.3h4.4v4.5H1.9z"/><defs><path id="SVGID_00000025423531300567192270000013438600863243605167_" d="M2.1 44.3c-.1.3.1 2 1.3 2.9.7.5 1.5.6 1.9.6-.4-.2-.8-.5-1.3-1-1.5-1.2-1.8-2.6-1.9-2.5"/></defs><clipPath id="SVGID_00000141450261248407680150000009965915740214299298_"><use xlink:href="#SVGID_00000025423531300567192270000013438600863243605167_" overflow="visible"/></clipPath><path clip-path="url(#SVGID_00000141450261248407680150000009965915740214299298_)" fill="#fc8901" d="M1.9 44.2h3.4v3.7H1.9z"/><defs><path id="SVGID_00000137852341610879704250000000518300829544635819_" d="M1.9 44.5c.2 0 .6 1.5 2.1 3 1.4 1.3 2.6 1.6 2.6 1.8 0 .1-.2.1-.5.1-.6 0-1.6-.2-2.5-.9-1.7-1.3-2-3.9-1.7-4m0-.6h-.2c-.2.1-.4.2-.4.6-.1.4 0 1.2.3 2 .3.7.8 1.7 1.7 2.4 1 .7 2.1 1 2.8 1 .2 0 .9 0 1-.5 0-.1.1-.5-.3-.9-.1-.1-.3-.2-.4-.2-.5-.3-1.2-.6-1.9-1.3-1-.9-1.5-1.9-1.7-2.4-.1-.1-.1-.3-.2-.3-.3-.2-.5-.4-.7-.4"/></defs><clipPath id="SVGID_00000151512694071544780000000010830779261279292037_"><use xlink:href="#SVGID_00000137852341610879704250000000518300829544635819_" overflow="visible"/></clipPath><path clip-path="url(#SVGID_00000151512694071544780000000010830779261279292037_)" fill="#1c3353" d="M1.1 43.9h6.2v6.2H1.1z"/><defs><path id="SVGID_00000093143061744758168550000010882705547952955014_" d="M.7 48.6c.1 0 .4.7 1.2 1.6.7.7 1.4 1 1.4 1 0 .1-.8 0-1.5-.6-.9-.7-1.2-2-1.1-2"/></defs><clipPath id="SVGID_00000177471986389879850650000005411758492176015502_"><use xlink:href="#SVGID_00000093143061744758168550000010882705547952955014_" overflow="visible"/></clipPath><path clip-path="url(#SVGID_00000177471986389879850650000005411758492176015502_)" fill="#ffcc5a" d="M.5 48.5h2.8v2.9H.5z"/><defs><path id="SVGID_00000120550102779402476830000016182046583222499490_" d="M.8 48.6c.1 0 .3.6 1.1 1.4.6.6 1.2.8 1.2.9 0 .1-.7 0-1.3-.5-.8-.7-1.1-1.8-1-1.8"/></defs><clipPath id="SVGID_00000151522231281214358620000016762991965829534646_"><use xlink:href="#SVGID_00000120550102779402476830000016182046583222499490_" overflow="visible"/></clipPath><path clip-path="url(#SVGID_00000151522231281214358620000016762991965829534646_)" fill="#ffb500" d="M.7 48.5h2.5V51H.7z"/><defs><path id="SVGID_00000108303065319991960730000004198455505512062346_" d="M.8 48.5c0 .1.2 1 .8 1.5.4.3.7.4.9.4-.2-.1-.4-.3-.7-.6-.7-.7-1-1.3-1-1.3"/></defs><clipPath id="SVGID_00000104692817207022728080000001838177831589187772_"><use xlink:href="#SVGID_00000108303065319991960730000004198455505512062346_" overflow="visible"/></clipPath><path clip-path="url(#SVGID_00000104692817207022728080000001838177831589187772_)" fill="#fc8901" d="M.7 48.4h1.9v2.1H.7z"/><defs><path id="SVGID_00000089571109373276961970000016376747513758251182_" d="M.7 48.6c.1 0 .4.8 1.2 1.6.7.7 1.4 1 1.4 1h-.1c-.2 0-.8-.2-1.4-.6-.9-.7-1.2-2-1.1-2m0-.6H.5c-.2.1-.4.3-.5.5-.1.4.2 1 .3 1.2.2.4.5 1 1.1 1.4.6.5 1.3.7 1.7.7s.6-.3.7-.5c0-.2 0-.4-.3-.7-.1 0-.1-.1-.2-.2-.2-.2-.6-.4-1-.8-.5-.5-.8-1-1-1.2-.1-.2-.2-.4-.6-.4"/></defs><clipPath id="SVGID_00000052816781495776030860000002407510561901215618_"><use xlink:href="#SVGID_00000089571109373276961970000016376747513758251182_" overflow="visible"/></clipPath><g clip-path="url(#SVGID_00000052816781495776030860000002407510561901215618_)"><defs><path id="SVGID_00000088831337632038404210000003298601506137162397_" d="M.1 48h3.8v3.9H.1z"/></defs><clipPath id="SVGID_00000052080795075811125110000016519178477365994930_"><use xlink:href="#SVGID_00000088831337632038404210000003298601506137162397_" overflow="visible"/></clipPath><path clip-path="url(#SVGID_00000052080795075811125110000016519178477365994930_)" fill="#1c3353" d="M0 47.9h4v4H0z"/></g><defs><path id="SVGID_00000090276311717702650970000004137269830527578545_" d="M4.4 27.3h11.9v11.2H4.4z"/></defs><clipPath id="SVGID_00000123423625531390805300000016774497780581051019_"><use xlink:href="#SVGID_00000090276311717702650970000004137269830527578545_" overflow="visible"/></clipPath><defs><path id="SVGID_00000047749839804707176060000006813816872515569850_" d="M16 31.4h10.9v12.2H16z"/></defs><clipPath id="SVGID_00000022548609407753617080000008276858955457050016_"><use xlink:href="#SVGID_00000047749839804707176060000006813816872515569850_" overflow="visible"/></clipPath><defs><path id="SVGID_00000169549376257097910880000006997307131492562052_" d="M19.2 8.6h12.7V19H19.2z"/></defs><clipPath id="SVGID_00000170987583222925313740000015589998037557322665_"><use xlink:href="#SVGID_00000169549376257097910880000006997307131492562052_" overflow="visible"/></clipPath><defs><path id="SVGID_00000100382054447578052020000006596157113305037739_" d="M31.9 16.7c.4-.6 1.5-.5 2-.3.6.2 1 .5 1 .6s-.6-.2-1.3 0c-.9.2-1.1 1.1-1.4 1-.3-.1-.5-.8-.3-1.3"/></defs><clipPath id="SVGID_00000079473198541463805630000009260623974857256077_"><use xlink:href="#SVGID_00000100382054447578052020000006596157113305037739_" overflow="visible"/></clipPath><path clip-path="url(#SVGID_00000079473198541463805630000009260623974857256077_)" fill="#113253" d="M31.6 16.1H35v2.1h-3.4z"/><defs><path id="SVGID_00000099625081719524040590000009014809188251556759_" d="M43.2 28.2c-.1.5-.2.9-.3 1.4v.7c0 .2 0 .5.1.7 0 .2.1.4.2.6 0 .1.1.2.2.2 0 0 .1 0 .1.1h.1c.1 0 .2-.1.3-.2s.2-.1.4-.2c.1 0 .2-.1.3-.1s.2 0 .3.1h.1s.1 0 .1.1l.1.1.1.1v.3c0 .2.1.3.1.4 0 .3.1.5.1.7 0 .1 0 .2.1.4l.1.4c.1.2.1.5.2.7 0 .1.1.2.1.3 0 0 0 .1.1.1 0 0 .1 0 .1-.1.1-.1.2-.1.2-.2.1-.2.3-.4.4-.6.1-.2.2-.4.3-.7 0-.1.2-.1.3-.1s.1.1.1.2c-.1.2-.2.5-.3.7s-.2.5-.4.7l-.3.3c-.1.1-.1.1-.2.1h-.4c-.1 0-.2-.1-.3-.2-.1-.1-.1-.1-.1-.2-.1-.1-.1-.3-.2-.4-.1-.3-.2-.5-.2-.7l-.1-.4c0-.1-.1-.3-.1-.4-.1-.3-.1-.5-.2-.8 0-.1-.1-.2-.1-.3v-.1h-.1c-.1 0-.2.1-.3.1-.1.1-.2.1-.3.2-.1 0-.1.1-.2.1s-.2.1-.3 0h-.2s-.1 0-.1-.1c-.1 0-.2-.1-.2-.1-.1-.1-.2-.2-.3-.4-.2-.3-.3-.5-.4-.8-.1-.3-.1-.6-.1-.8v-.8c0-.5.1-1.1.2-1.6.1-.3.3-.4.6-.4.2.3.4.6.3.9"/></defs><clipPath id="SVGID_00000005245160303422130230000013700664447225384607_"><use xlink:href="#SVGID_00000099625081719524040590000009014809188251556759_" overflow="visible"/></clipPath><path clip-path="url(#SVGID_00000005245160303422130230000013700664447225384607_)" fill="#1c3353" d="M42 27.5h5.7v8.1H42z"/><defs><path id="SVGID_00000135651662093368064680000007567011089467928973_" d="M37.1 40.3c.8-1.9.6-4.1-.2-6.3-.2-.6-1-.6-1.3 0-.3.7-.6 1.2-1.1 1.2-1.1 0-1.4-2.4-2.8-2.6-2-.3-3.2 3.8-5.4 3.6-1.5-.1-1.9-2.1-3.3-2.1-1.2.1-1.4 1.4-2.4 1.8-.9.3-1.8-.2-2.8-1-.4-.3-1-.1-1.1.4-.5 1.9-.4 3.8.3 5.4 2.1 4.5 9.2 4.8 9.6 4.8 3.5.1 8.9-1.3 10.5-5.2"/></defs><clipPath id="SVGID_00000083078664247440819990000004540070791630357670_"><use xlink:href="#SVGID_00000135651662093368064680000007567011089467928973_" overflow="visible"/></clipPath><path clip-path="url(#SVGID_00000083078664247440819990000004540070791630357670_)" fill="#113253" d="M16.1 32.3h21.8v13.4H16.1z"/><defs><path id="SVGID_00000155106092629076144000000010308687438229329032_" d="M37.9 25.3c0 3.8-1.7 6.9-3.7 6.9-2.1 0-3.7-3.1-3.7-6.9s1.7-6.9 3.7-6.9 3.7 3.1 3.7 6.9"/></defs><clipPath id="SVGID_00000037679645862935562230000010521474149368929208_"><use xlink:href="#SVGID_00000155106092629076144000000010308687438229329032_" overflow="visible"/></clipPath><path clip-path="url(#SVGID_00000037679645862935562230000010521474149368929208_)" fill="#f7931e" d="M30.3 18.4h7.6v13.8h-7.6z"/><defs><path id="SVGID_00000181045573264988617110000013481484705366320303_" d="M21.3 26.5c0 3.9-1.7 7.1-3.9 7.1-2.1 0-3.9-3.2-3.9-7.1s1.7-7.1 3.9-7.1c2.1-.1 3.9 3.1 3.9 7.1"/></defs><clipPath id="SVGID_00000145024162350941291250000014166638743426627502_"><use xlink:href="#SVGID_00000181045573264988617110000013481484705366320303_" overflow="visible"/></clipPath><path clip-path="url(#SVGID_00000145024162350941291250000014166638743426627502_)" fill="#f7931e" d="M13.4 19.2h7.9v14.4h-7.9z"/><defs><path id="SVGID_00000127739922797262709750000002740727009252989587_" d="M37.9 24.8c0 3.8-1.7 6.9-3.7 6.9-2.1 0-3.7-3.1-3.7-6.9s1.7-6.9 3.7-6.9c2 .1 3.7 3.1 3.7 6.9"/></defs><clipPath id="SVGID_00000068637441303784484420000009517798284607372460_"><use xlink:href="#SVGID_00000127739922797262709750000002740727009252989587_" overflow="visible"/></clipPath><path clip-path="url(#SVGID_00000068637441303784484420000009517798284607372460_)" fill="#0f3157" d="M30.3 17.9h7.6v13.8h-7.6z"/><defs><path id="SVGID_00000153693893756701665540000011925140130267717546_" d="M32.7 42.7c.5-1.2.2-2.6-.5-3.9-.2.7-.4 1.4-.8 1.4-.5 0-.7-1.2-1.4-1.3-1-.1-1.6 1.9-2.7 1.8-.7-.1-.9-1.1-1.7-1-.6 0-.7.7-1.2.9s-1.2-.2-1.8-.8c-.4 1.1-.4 2.3 0 3.2 1 2.3 4.6 2.4 4.8 2.4 1.8-.1 4.5-.8 5.3-2.7"/></defs><clipPath id="SVGID_00000034778963009348554580000014578161278859537820_"><use xlink:href="#SVGID_00000153693893756701665540000011925140130267717546_" overflow="visible"/></clipPath><path clip-path="url(#SVGID_00000034778963009348554580000014578161278859537820_)" fill="#e9486d" d="M22.1 38.6h11.1v6.8H22.1z"/><path class="st4" d="M27.2 45.7h-.3c-.2 0-2.2-.1-4.4-.7-2.9-.9-4.9-2.4-5.8-4.4-.8-1.6-.9-3.6-.3-5.8.1-.4.4-.8.9-.9.4-.1.9-.1 1.2.2 1 .8 1.7 1.1 2.2.9.3-.1.5-.4.8-.7.4-.5.9-1.1 1.8-1.1 1-.1 1.7.6 2.2 1.2.4.4.7.8 1.2.9.8.1 1.6-.8 2.3-1.7.9-1 1.8-2.1 3.1-1.9 1.1.2 1.6 1.1 2 1.8.2.3.5.8.7.8 0 0 .2 0 .5-.8.2-.5.7-.8 1.2-.8s1 .3 1.2.8c.9 2.4 1 4.8.2 6.7-.8 1.9-2.5 3.4-4.9 4.4-1.7.7-3.8 1.1-5.8 1.1zM17.6 35c-.5 1.9-.5 3.7.2 5 2 4.2 8.8 4.4 9.1 4.4 1.9 0 4-.3 5.7-1 2.7-1.1 3.8-2.6 4.2-3.7.7-1.6.6-3.7-.2-5.8h-.2c-.2.5-.6 1.5-1.6 1.6-.9 0-1.3-.8-1.7-1.4-.3-.6-.7-1.1-1.2-1.2-.6-.1-1.3.7-2 1.5-.9 1.1-1.9 2.2-3.3 2.1-.9-.1-1.5-.7-2-1.3-.5-.5-.8-.8-1.2-.8-.4 0-.6.2-1 .7-.3.4-.7.8-1.3 1-.9.3-2.1 0-3.5-1.1.1 0 .1 0 0 0z"/><defs><path id="SVGID_00000010288973010776146890000006228640484606859193_" d="M21.2 25.9c0 3.8-1.7 6.9-3.7 6.9s-3.7-3.1-3.7-6.9 1.7-6.9 3.7-6.9 3.7 3.1 3.7 6.9"/></defs><clipPath id="SVGID_00000181806448604863063500000017490781687126026905_"><use xlink:href="#SVGID_00000010288973010776146890000006228640484606859193_" overflow="visible"/></clipPath><path clip-path="url(#SVGID_00000181806448604863063500000017490781687126026905_)" fill="#0f3157" d="M13.7 18.9h7.6v13.8h-7.6z"/><defs><path id="SVGID_00000036228040576732739020000003606313635969920410_" d="M17.6 29.6c-1.3 0-2.4-2.8-2.6-6.4v1c0 4.1 1.2 7.4 2.6 7.4s2.6-3.3 2.6-7.4v-1c-.2 3.6-1.3 6.4-2.6 6.4"/></defs><clipPath id="SVGID_00000013165560967989483490000005189911270054826628_"><use xlink:href="#SVGID_00000036228040576732739020000003606313635969920410_" overflow="visible"/></clipPath><path clip-path="url(#SVGID_00000013165560967989483490000005189911270054826628_)" fill="#fff" d="M15 23.1h5.3v8.6H15z"/><defs><path id="SVGID_00000016049086518131720430000007549917284960458934_" d="M34.3 28.5c-1.3 0-2.4-2.8-2.6-6.4v1c0 4.1 1.2 7.4 2.6 7.4s2.6-3.3 2.6-7.4v-1c-.2 3.6-1.3 6.4-2.6 6.4"/></defs><clipPath id="SVGID_00000070822540411533291520000007236763892428793779_"><use xlink:href="#SVGID_00000016049086518131720430000007549917284960458934_" overflow="visible"/></clipPath><path clip-path="url(#SVGID_00000070822540411533291520000007236763892428793779_)" fill="#fff" d="M31.6 22h5.3v8.6h-5.3z"/><defs><path id="SVGID_00000170974225390631090580000011643166455768482471_" d="M15.9 31.1l3.6-.4-2.1-2.9z"/></defs><clipPath id="SVGID_00000166674359462752251240000016496967452690498452_"><use xlink:href="#SVGID_00000170974225390631090580000011643166455768482471_" overflow="visible"/></clipPath><path clip-path="url(#SVGID_00000166674359462752251240000016496967452690498452_)" fill="#fff" d="M15.8 27.8h3.7v3.4h-3.7z"/><defs><path id="SVGID_00000003820773507521963840000014074515280988580489_" d="M32.9 30.1l3.5-.3-2.1-3z"/></defs><clipPath id="SVGID_00000155845525355889925280000001540387133123571365_"><use xlink:href="#SVGID_00000003820773507521963840000014074515280988580489_" overflow="visible"/></clipPath><path clip-path="url(#SVGID_00000155845525355889925280000001540387133123571365_)" fill="#fff" d="M32.8 26.8h3.7v3.4h-3.7z"/><defs><path id="SVGID_00000013879581423781502410000015911877679643960743_" d="M17.5 20.3c.5 0 1.1.5 1.6 1.4.6 1.1.9 2.6.9 4.3 0 1.6-.3 3.2-.9 4.3-.5.9-1 1.4-1.6 1.4-.5 0-1.1-.5-1.6-1.4-.5-1.3-.9-2.8-.9-4.4s.3-3.2.9-4.3c.5-.8 1.1-1.3 1.6-1.3m0-1.3c-2.1 0-3.7 3.1-3.7 6.8 0 3.8 1.7 6.8 3.7 6.8s3.7-3.1 3.7-6.8c.1-3.7-1.6-6.8-3.7-6.8"/></defs><clipPath id="SVGID_00000005224814168965548910000013372087987866794889_"><use xlink:href="#SVGID_00000013879581423781502410000015911877679643960743_" overflow="visible"/></clipPath><path clip-path="url(#SVGID_00000005224814168965548910000013372087987866794889_)" fill="#1c3353" d="M13.8 19h7.6v13.8h-7.6z"/><defs><path id="SVGID_00000079485106493664455450000001998806020962841010_" d="M34.3 19c.5 0 1.1.5 1.6 1.4.6 1.1.9 2.6.9 4.3 0 1.6-.3 3.2-.9 4.3-.5.9-1 1.4-1.6 1.4-.5 0-1.1-.5-1.6-1.4-.6-1.1-.9-2.6-.9-4.3 0-1.6.3-3.2.9-4.3.5-.9 1.1-1.4 1.6-1.4m0-1.2c-2.1 0-3.7 3.1-3.7 6.8 0 3.8 1.7 6.8 3.7 6.8 2.1 0 3.7-3.1 3.7-6.8s-1.6-6.8-3.7-6.8"/></defs><clipPath id="SVGID_00000150093843532139295590000003628618425303588228_"><use xlink:href="#SVGID_00000079485106493664455450000001998806020962841010_" overflow="visible"/></clipPath><path clip-path="url(#SVGID_00000150093843532139295590000003628618425303588228_)" fill="#1c3353" d="M30.5 17.7h7.6v13.8h-7.6z"/><g class="st44"><defs><path id="SVGID_00000127041423101456516140000011411776173100033707_" d="M29.9 5.5c1.5 1.8-.3 5.7-4 8.6-3.7 3-7.8 3.9-9.3 2.1s.3-5.7 4-8.6 7.9-3.9 9.3-2.1"/></defs><clipPath id="SVGID_00000181773554524887510330000016813956035562296488_"><use xlink:href="#SVGID_00000127041423101456516140000011411776173100033707_" overflow="visible"/></clipPath><path clip-path="url(#SVGID_00000181773554524887510330000016813956035562296488_)" fill="#fc8901" d="M15.2 3.7h16.3v14.5H15.2z"/></g><defs><path id="SVGID_00000034061918542062838190000000899579052326068917_" d="M25.1 12.9c-.1.4-.2.9-.3 1.4v.7c0 .2 0 .4.1.6 0 .2.1.4.2.5 0 .1.1.1.1.1h-.1s-.1 0 0 0h.1c.1 0 .2-.1.3-.2.1-.1.3-.2.5-.2.1 0 .2-.1.4-.1h.4s.1 0 .1.1l.1.1.1.1.1.1s0 .1.1.1v.3c0 .2.1.3.1.4 0 .3.1.5.1.7 0 .1 0 .2.1.4l.1.4c.1.2.1.5.2.7 0 .1.1.2.1.3v.1h.1c.1 0 .1-.1.2-.2.1-.2.3-.4.4-.6s.2-.4.3-.7c.1-.2.3-.2.4-.1s.2.2.2.4c-.1.2-.2.5-.3.7-.1.2-.2.5-.4.7-.1.1-.2.2-.3.4-.1.1-.1.1-.3.2h-.4c-.2 0-.3-.1-.4-.2s-.1-.2-.2-.2c-.1-.1-.1-.3-.2-.4-.1-.3-.2-.5-.3-.8l-.1-.4c0-.1-.1-.3-.1-.4-.1-.3-.1-.5-.2-.8 0-.1-.1-.2-.1-.3 0 0-.1.1-.2.1-.1.1-.2.1-.4.2-.1 0-.2.1-.3.1-.1 0-.3.1-.4.1s-.2 0-.3-.1c-.1 0-.1 0-.2-.1-.1 0-.2-.1-.3-.2-.2-.1-.3-.3-.4-.4-.2-.3-.3-.6-.4-.9-.1-.3-.1-.6-.2-.9v-.9c0-.6.1-1.1.2-1.7.1-.4.5-.7.9-.6.6.5.9.9.8 1.4"/></defs><clipPath id="SVGID_00000033343584451138253560000015628234167683517115_"><use xlink:href="#SVGID_00000034061918542062838190000000899579052326068917_" overflow="visible"/></clipPath><path clip-path="url(#SVGID_00000033343584451138253560000015628234167683517115_)" fill="#1c3353" d="M23.3 11.7h6.2v8.6h-6.2z"/><defs><path id="SVGID_00000088811091084883811670000006314340191870061965_" d="M30.1 3.6c1.4 2.1-.5 5.9-4.3 8.6s-8.1 3.2-9.6 1.1c-1.4-2.1.5-5.9 4.3-8.6s8.1-3.2 9.6-1.1"/></defs><clipPath id="SVGID_00000144337714312415858930000018196983350849427115_"><use xlink:href="#SVGID_00000088811091084883811670000006314340191870061965_" overflow="visible"/></clipPath><path clip-path="url(#SVGID_00000144337714312415858930000018196983350849427115_)" fill="#ffb500" d="M14.7 1.5h16.9v14H14.7z"/><defs><path id="SVGID_00000086681383537380279930000016435225939903955622_" d="M29.9 3.6c.4.5.5 1.2.5 1.9.2-.9.1-1.8-.4-2.5-1.4-2-5.6-1.5-9.4 1.1-2.8 1.9-4.5 4.5-4.7 6.5.4-1.9 2.1-4.2 4.6-6 3.7-2.5 8-3 9.4-1"/></defs><clipPath id="SVGID_00000144316226432816871890000008637885450228408992_"><use xlink:href="#SVGID_00000086681383537380279930000016435225939903955622_" overflow="visible"/></clipPath><path clip-path="url(#SVGID_00000144316226432816871890000008637885450228408992_)" fill="#fc8901" d="M15.8 1h14.8v9.8H15.8z"/><g class="st44"><defs><path id="SVGID_00000083810499888995146710000007278465623080625333_" d="M30.3 5.5c-.4 1.9-2.1 4.2-4.6 6-3.8 2.7-8 3.2-9.4 1.1-.4-.5-.5-1.2-.5-1.9-.2.9-.1 1.8.4 2.5 1.4 2 5.6 1.5 9.4-1.1 2.8-2 4.6-4.5 4.7-6.6"/></defs><clipPath id="SVGID_00000151522173351882381250000002024391802527984260_"><use xlink:href="#SVGID_00000083810499888995146710000007278465623080625333_" overflow="visible"/></clipPath><path clip-path="url(#SVGID_00000151522173351882381250000002024391802527984260_)" fill="#fc8901" d="M15.6 5.5h14.8v9.8H15.6z"/></g><path class="st4" d="M19.3 14.9c-1.6 0-2.7-.5-3.4-1.5-.7-1.1-.7-2.7.3-4.4.9-1.7 2.4-3.3 4.4-4.6 1.9-1.3 4-2.1 5.9-2.3s3.4.3 4.2 1.4c.7 1.1.7 2.7-.3 4.4-.9 1.7-2.4 3.3-4.4 4.6-1.9 1.3-4 2.1-5.9 2.3-.3.1-.6.1-.8.1zm7.9-12.2h-.7c-1.8.3-3.8 1-5.6 2.3-1.8 1.2-3.3 2.8-4.2 4.3-.8 1.5-.9 2.8-.3 3.8.6.9 1.9 1.3 3.6 1.2 1.8-.2 3.8-.9 5.6-2.2 1.8-1.2 3.3-2.8 4.2-4.3.8-1.5.9-2.8.3-3.8-.6-.8-1.6-1.3-2.9-1.3z"/><defs><path id="SVGID_00000008124882778903749780000016200123135281318558_" d="M28.9 1.8c1.5 2.1-.5 6.1-4.4 8.8-3.9 2.8-8.3 3.3-9.8 1.2s.5-6.1 4.4-8.8C23 .2 27.4-.3 28.9 1.8"/></defs><clipPath id="SVGID_00000072278465850890538720000005493992422717048218_"><use xlink:href="#SVGID_00000008124882778903749780000016200123135281318558_" overflow="visible"/></clipPath><path clip-path="url(#SVGID_00000072278465850890538720000005493992422717048218_)" fill="#ffb500" d="M13.1-.1h17.3v14H13.1z"/><g class="st44"><defs><path id="SVGID_00000132790842160622794650000014458947549122774936_" d="M25.1 9.7c-3.7 2.6-7.7 3.1-9.1 1.1-1.4-2 .5-5.6 4.1-8.2.6-.4 1.3-.8 1.9-1.1-.9.4-1.9.9-2.8 1.6-3.8 2.7-5.7 6.5-4.3 8.5s5.7 1.5 9.5-1.1c.9-.6 1.7-1.3 2.4-2.1-.5.5-1.1.9-1.7 1.3"/></defs><clipPath id="SVGID_00000122698043297281758320000005744074801536049059_"><use xlink:href="#SVGID_00000132790842160622794650000014458947549122774936_" overflow="visible"/></clipPath><path clip-path="url(#SVGID_00000122698043297281758320000005744074801536049059_)" fill="#fc8901" d="M13.4 1.4h13.4v12.3H13.4z"/></g><defs><path id="SVGID_00000070839812722570867340000001803498630107010956_" d="M25.7.6c1.3 0 2.4.4 3 1.2 1.4 2-.5 5.8-4.3 8.5-2.2 1.6-4.6 2.4-6.5 2.4-1.3 0-2.4-.4-3-1.2-1.4-2 .5-5.8 4.3-8.5C21.5 1.4 23.8.6 25.7.6m0-.6v.6V0c-2.1 0-4.6.9-6.8 2.5-1.9 1.3-3.4 3-4.3 4.7-.9 1.8-1 3.5-.1 4.6.4.5.9.9 1.5 1.2.6.2 1.2.4 2 .4 2.1 0 4.6-.9 6.8-2.5 1.9-1.3 3.4-3 4.3-4.7.9-1.8 1-3.5.1-4.6-.4-.5-.9-.9-1.5-1.2-.6-.3-1.2-.4-2-.4"/></defs><clipPath id="SVGID_00000077290922135696320340000005453627629519266689_"><use xlink:href="#SVGID_00000070839812722570867340000001803498630107010956_" overflow="visible"/></clipPath><path clip-path="url(#SVGID_00000077290922135696320340000005453627629519266689_)" fill="#1c3353" d="M13.5-.1h16.7v13.5H13.5z"/><defs><path id="SVGID_00000115488974805259729910000018315974094972041112_" d="M24.7 1.9c1 0 1.8.3 2.2.9 1.1 1.5-.4 4.3-3.2 6.3-1.6 1.2-3.4 1.8-4.8 1.8-1 0-1.8-.3-2.2-.9-1.1-1.5.4-4.3 3.2-6.3 1.6-1.2 3.4-1.8 4.8-1.8m0-.6v.6-.6c-1.6 0-3.5.7-5.2 1.9-1.4 1-2.6 2.3-3.2 3.6-.7 1.4-.7 2.7-.1 3.6.5.8 1.5 1.2 2.7 1.2 1.6 0 3.5-.7 5.2-1.9 1.4-1 2.6-2.3 3.2-3.6.7-1.4.7-2.7.1-3.6-.5-.8-1.5-1.2-2.7-1.2"/></defs><clipPath id="SVGID_00000068650782006498947180000015645463309848604088_"><use xlink:href="#SVGID_00000115488974805259729910000018315974094972041112_" overflow="visible"/></clipPath><path clip-path="url(#SVGID_00000068650782006498947180000015645463309848604088_)" fill="#1c3353" d="M15.5 1.2h12.6v10.4H15.5z"/><g class="st44"><defs><path id="SVGID_00000139978194224587039070000015544488498995495553_" d="M18.4 8.7c-1-1.4.2-4 2.7-6-.4.2-.9.5-1.3.8-2.8 2-4.2 4.8-3.2 6.3 1.1 1.5 4.2 1.1 7-.8.2-.1.3-.2.5-.3-2.4 1.2-4.8 1.3-5.7 0"/></defs><clipPath id="SVGID_00000102528141963130221910000008383839795209111470_"><use xlink:href="#SVGID_00000139978194224587039070000015544488498995495553_" overflow="visible"/></clipPath><path clip-path="url(#SVGID_00000102528141963130221910000008383839795209111470_)" fill="#fc8901" d="M15.5 2.7h8.7v8.7h-8.7z"/></g><defs><path id="SVGID_00000134240509448197255610000008049749605111420829_" d="M24.5 2.1c.9 0 1.7.3 2.1.9 1 1.4-.3 4.1-3 5.9-1.6 1.1-3.2 1.7-4.5 1.7-.9 0-1.7-.3-2.1-.9-1-1.4.3-4.1 3-5.9 1.5-1.1 3.2-1.7 4.5-1.7m0-.6v.6-.6c-1.5 0-3.3.6-4.9 1.8-1.4 1-2.4 2.1-3.1 3.4-.7 1.3-.7 2.6-.1 3.4.5.7 1.4 1.1 2.6 1.1 1.5 0 3.3-.6 4.9-1.8 1.4-1 2.4-2.1 3.1-3.4s.7-2.6.1-3.4c-.5-.7-1.4-1.1-2.6-1.1"/></defs><clipPath id="SVGID_00000165220697487415254700000005524409569382244753_"><use xlink:href="#SVGID_00000134240509448197255610000008049749605111420829_" overflow="visible"/></clipPath><path clip-path="url(#SVGID_00000165220697487415254700000005524409569382244753_)" fill="#1c3353" d="M15.8 1.4h12v9.8h-12z"/><path class="st4" d="M30.5 4.6c-.1 0-.2-.1-.3-.1L28.8 2c-.1-.1 0-.3.1-.4s.3 0 .4.1l1.5 2.4c.1.1 0 .3-.1.4-.1.1-.1.1-.2.1zm-14 9.4c-.1 0-.2 0-.2-.1l-1.5-1.6c-.1-.1-.1-.3 0-.4.1-.1.3-.1.4 0l1.5 1.6c.1.1.1.3 0 .4 0 .1-.1.1-.2.1z"/><defs><path id="SVGID_00000155851334407792741310000006229257820882020256_" d="M18.9 8c0-.1 0-.2.1-.3 0-.1.1-.1.1-.2l.2-.2.1-.1s.1 0 .1-.1c.1 0 .1-.1.2-.1l.1-.1h.2c.2-.1.3-.2.4-.3.1-.1.2-.1.3-.2.1 0 .1-.1.2-.1h.1l.2-.1c.1 0 .1-.1.2-.1.1-.1.2-.2.3-.2l.1-.1v-.1h-.3s-.1 0-.1.1c-.1 0-.2.1-.3.2l-.1.1-.1.1-.1.1v.1c0 .1-.1.1-.1.2-.3.4-1.2.9-1.8 1.1-.5.2-.7 0-.5-.3l.1-.1c0-.1.1-.1.1-.2l.2-.2c.1-.1.3-.2.5-.4.2-.1.4-.3.6-.4h.1l-.3-.1c-.1 0-.1-.1 0-.2.3-.8 1-1.3 1.7-1.6.8-.4 1.3-.5 1-.1l-.4.5c.1-.1.3-.1.4-.2.7-.3 1.4-.6 1.9-.7.3-.1.5-.1.7-.1s.3.1.3.1v.1c0 .1 0 .1-.1.2 0 0 0 .1-.1.1l-.1.1-.1.1-.1.1c-.2.2-.5.4-.7.6-.3.2-.5.3-.7.5-.1.1-.2.1-.3.2l-.3.2c-.1.1-.2.1-.4.2-.1.1-.2.1-.4.2s-.5.3-.7.4c-.1.3-.3.4-.4.5-.1.1-.1.1 0 .2l.1.1h.4c.1 0 .2 0 .3-.1.1 0 .2-.1.3-.1.1 0 .2-.1.3-.2.2-.1.5-.3.6-.4l.2-.2c-.1-.1-.1-.1-.1-.2s.3-.4.8-.6c.6-.2 1.1-.4 1.3-.3.1.1.1.2.1.3 0 .1-.1.3-.3.4-.1.2-.3.3-.6.5s-.5.4-.9.6c-.3.2-.7.3-1 .5-.1 0-.1 0-.2.1l.5.4c.1.1.1.2 0 .3-.2.3-1 .7-1.7.7-.6.1-.9-.1-.7-.3l.4-.5h-.1c-.3.1-.5.1-.7.1h-.5c-.1 0-.2-.1-.3-.1-.2-.2-.2-.3-.2-.4"/></defs><clipPath id="SVGID_00000167360423918920801330000005162873988085797526_"><use xlink:href="#SVGID_00000155851334407792741310000006229257820882020256_" overflow="visible"/></clipPath><path clip-path="url(#SVGID_00000167360423918920801330000005162873988085797526_)" fill="#1c3353" d="M18.1 3.5h7.3v5.8h-7.3z"/><g class="st1"><defs><path id="SVGID_00000088132831416545468060000006386351690714484660_" d="M34.5 54.8c-1 1-4.2 1.7-7.9 1.7-3.6 0-6.7-.7-7.8-1.6-2.5.6-4.2 1.6-4.2 2.6 0 1.9 5.5 3.5 12.2 3.5S39 59.4 39 57.5c.1-1.1-1.7-2-4.5-2.7"/></defs><clipPath id="SVGID_00000111163201826003641200000001550461335164844990_"><use xlink:href="#SVGID_00000088132831416545468060000006386351690714484660_" overflow="visible"/></clipPath><g clip-path="url(#SVGID_00000111163201826003641200000001550461335164844990_)"><defs><path id="SVGID_00000018953480208575311840000010427464011810354575_" d="M14.7 54.8h24.4V61H14.7z"/></defs><clipPath id="SVGID_00000058582798766090524530000000503429956623302040_"><use xlink:href="#SVGID_00000018953480208575311840000010427464011810354575_" overflow="visible"/></clipPath><path clip-path="url(#SVGID_00000058582798766090524530000000503429956623302040_)" fill="#113253" d="M14.6 54.8h24.5v6.3H14.6z"/></g></g><defs><path id="SVGID_00000011713002352277745940000005547757255251602054_" d="M19.2 17.3c-.5-.5-1.6-.1-2 .2-.5.3-.9.8-.8.9s.5-.4 1.2-.4c.9 0 1.3.8 1.7.6.3-.1.3-.9-.1-1.3"/></defs><clipPath id="SVGID_00000094619023040514356610000001113739755734880182_"><use xlink:href="#SVGID_00000011713002352277745940000005547757255251602054_" overflow="visible"/></clipPath><path clip-path="url(#SVGID_00000094619023040514356610000001113739755734880182_)" fill="#113253" d="M16.3 16.8h3.4v2.1h-3.4z"/></g></g></g></g></svg>